<?xml version="1.0" encoding="utf-8"?>
<svg width="24px" height="24px" viewBox="0 0 24 24" version="1.1" xmlns:xlink="http://www.w3.org/1999/xlink" xmlns="http://www.w3.org/2000/svg">
  <desc>Created with Lunacy</desc>
  <g id="icon/social/spotify">
    <path d="M0 0L24 0L24 24L0 24L0 0Z" id="container" fill="none" stroke="none" />
    <path d="M0 12C0 5.4 5.4 0 12 0C18.66 0 24 5.4 24 12C24 18.6 18.6 24 12 24C5.4 24 0 18.6 0 12ZM19.08 10.68C15.24 8.4 8.82 8.16 5.16 9.3C4.56 9.48 3.96 9.12 3.78 8.58C3.6 7.98 3.96 7.38 4.5 7.2C8.76 5.94 15.78 6.18 20.22 8.82C20.76 9.12 20.94 9.84 20.64 10.38C20.34 10.8 19.62 10.98 19.08 10.68ZM17.7 14.34C18.12 14.64 18.66 14.46 18.96 14.04C19.26 13.62 19.08 13.02 18.72 12.84C15 10.56 9.6 9.9 5.22 11.22C4.74 11.34 4.5 11.88 4.62 12.36C4.74 12.84 5.28 13.08 5.76 12.96C9.54 11.76 14.46 12.36 17.7 14.34ZM17.52 17.34C17.28 17.7 16.86 17.82 16.5 17.58C13.68 15.84 10.14 15.48 5.94 16.44C5.52 16.56 5.16 16.26 5.04 15.9C4.92 15.48 5.22 15.12 5.58 15C10.14 13.98 14.1 14.4 17.22 16.32C17.64 16.5 17.7 16.98 17.52 17.34Z" id="icon/social/spotify" fill="#455A64" fill-rule="evenodd" stroke="none" />
  </g>
</svg>
