<?xml version="1.0" encoding="utf-8"?>
<svg width="85px" height="16px" viewBox="0 0 85 16" version="1.1" xmlns:xlink="http://www.w3.org/1999/xlink" xmlns="http://www.w3.org/2000/svg">
  <desc>Created with Lunacy</desc>
  <g id="brand/logo">
    <g id="brand/logo">
      <path d="M4.43077 1.6L4.43077 0.369231C4.43077 0.184615 4.55385 0 4.8 0L6.09231 0C6.27692 0 6.46154 0.123077 6.46154 0.369231L6.46154 1.6C6.46154 1.78462 6.33846 1.96923 6.09231 1.96923L4.8 1.96923Q4.43077 1.96923 4.43077 1.6ZM0 0.430769L0 13.2308C0 13.4769 0.184615 13.6 0.369231 13.6615L1.53785 13.6615C1.78462 13.6615 1.90769 13.4769 1.90769 13.2923L1.90769 0.430769C1.90769 0.184615 1.72308 0.0615385 1.53846 0.0615385L0.369231 0.0615385C0.123077 0.0615385 0 0.246154 0 0.430769ZM19.1385 0.430769L19.1385 13.2308C19.1385 13.4769 19.3231 13.6 19.5077 13.7231L20.6154 13.7231C20.8615 13.7231 20.9846 13.5385 20.9846 13.3538L20.9846 10.5231C20.9846 10.4 20.9846 10.3397 21.0462 10.2769L22.3385 8.86154L22.4 8.86154L25.5385 13.5385C25.6012 13.5988 25.7237 13.6609 25.8462 13.6609L27.0769 13.6609C27.3846 13.6609 27.5077 13.3532 27.3846 13.1077L23.9385 7.93846C23.8154 7.81538 23.8154 7.63077 23.9385 7.50769L26.7686 4.30769C26.9538 4.12308 26.8308 3.75385 26.5231 3.75385L25.1077 3.75385C25.0462 3.75385 24.9231 3.81538 24.9231 3.93846L21.0462 8.18462L20.9846 8.18462L20.9846 0.430769C20.9846 0.184615 20.8 0.0615385 20.6154 0.0615385L19.5077 0.0615385C19.2615 0.0615385 19.1385 0.246154 19.1385 0.430769ZM29.6615 5.35385L28.5538 5.35385C28.3692 5.35385 28.1834 5.23077 28.1834 4.98462L28.1834 4.12308C28.2462 3.93846 28.3692 3.75385 28.5538 3.75385L29.7231 3.75385L29.7231 1.72308C29.7231 1.53846 29.8455 1.35385 30.0929 1.35385L31.1391 1.35385C31.3237 1.35385 31.5083 1.47692 31.5083 1.72308L31.5083 3.75385L33.6006 3.75385C33.7852 3.75385 33.9698 3.87692 33.9698 4.12308L33.9698 4.98462C33.9698 5.16923 33.8474 5.35385 33.6006 5.35385L31.5083 5.35385L31.5083 10.3385C31.5083 10.8917 31.5698 11.2615 31.7545 11.5071C31.9385 11.7538 32.2462 11.8769 32.7385 11.8769L33.1692 11.8769C33.3538 11.8769 33.5385 12 33.5385 12.2462L33.5385 13.2923C33.5385 13.4769 33.416 13.6615 33.1692 13.6615L32.6154 13.6615C31.5698 13.6615 30.832 13.4166 30.3391 12.9237C29.9077 12.3077 29.6615 11.5692 29.6615 10.5231L29.6615 5.35385ZM48.9231 10.4L49.7237 11.0154C49.8462 11.1385 49.9089 11.3231 49.7858 11.4462C49.416 12 48.9249 12.4923 48.3705 12.9231C47.6923 13.3532 46.832 13.6 45.9089 13.6C44.5551 13.6 43.4474 13.1077 42.5858 12.1846C41.7243 11.2615 41.2935 9.96862 41.2935 8.43015C41.2935 6.82954 41.7237 5.59877 42.5858 4.67569C43.448 3.75262 44.4935 3.26031 45.848 3.26031C47.1409 3.26031 48.2474 3.75262 49.0474 4.67569C49.848 5.59877 50.2782 6.89169 50.2782 8.49108L50.2782 8.67692C50.2782 8.86154 50.1557 9.04615 49.9089 9.04615L43.5089 9.04615C43.3243 9.04615 43.1397 9.23138 43.1397 9.41662C43.2012 10.0935 43.4474 10.7089 43.8166 11.2C44.3095 11.7538 44.9249 12.0615 45.7858 12.0615C46.2166 12.0615 46.5858 12 46.8935 11.8769C47.2012 11.7538 47.5089 11.5692 47.6942 11.3846C47.9397 11.1385 48.064 10.9538 48.1858 10.8308C48.2486 10.7692 48.3095 10.6462 48.3717 10.5846C48.4923 10.3385 48.7385 10.2769 48.9231 10.4ZM59.6308 10.4L60.4308 11.0154C60.5538 11.1385 60.6154 11.3231 60.4929 11.4462C60.1231 12 59.632 12.4923 59.0769 12.9231C58.4 13.3532 57.5385 13.6 56.6154 13.6C55.2622 13.6 54.1538 13.1077 53.2935 12.1846C52.432 11.2615 52 9.96862 52 8.43015C52 6.82954 52.4308 5.59877 53.2935 4.67569C54.1538 3.75262 55.2012 3.26031 56.5551 3.26031C57.848 3.26031 58.9545 3.75262 59.7551 4.67569C60.5551 5.59877 60.9858 6.89169 60.9858 8.49108L60.9858 8.67692C60.9858 8.86154 60.8628 9.04615 60.6154 9.04615L54.2154 9.04615C54.0295 9.04615 53.8455 9.23138 53.8455 9.41662C53.9077 10.0935 54.1532 10.7089 54.5231 11.2C55.0154 11.7538 55.6308 12.0615 56.4911 12.0615C56.9225 12.0615 57.2923 12 57.6 11.8769C57.9077 11.7538 58.2154 11.5692 58.4 11.3846C58.6449 11.1385 58.7692 10.9538 58.8923 10.8308C58.9545 10.7692 59.0154 10.6462 59.0769 10.5846C59.2 10.3385 59.4462 10.2769 59.6308 10.4ZM8.86154 13.2308L8.86154 4.12308C8.86154 3.93846 8.98462 3.75385 9.23077 3.75385L10.3385 3.75385C10.5231 3.75385 10.7077 3.87692 10.7077 4.12308L10.7077 4.73846L10.7692 4.73846C11.1385 4.24615 11.7538 3.81538 12.6769 3.56923L12.7385 3.56923C14.1538 3.38462 15.2615 3.69231 16 4.49231C16.6154 5.16923 16.9852 6.03077 16.9852 7.19938L16.9852 13.2911C16.9852 13.4757 16.8622 13.6609 16.6154 13.6609L15.5077 13.6609C15.3231 13.6609 15.1385 13.5385 15.1385 13.2911L15.1385 7.69046C15.1385 6.02954 14.4609 5.16677 13.0462 5.16677C12.3692 5.16677 11.7538 5.35138 11.3231 5.78215C10.8923 6.21292 10.7077 6.76738 10.7077 7.44369L10.7077 13.2898C10.7077 13.4745 10.5846 13.6591 10.3378 13.6591L9.23015 13.6591C8.98462 13.6 8.86154 13.4769 8.86154 13.2308ZM35.9385 4.12308L35.9385 13.2308C35.9385 13.4769 36.0615 13.6 36.2462 13.5391L37.416 13.5391C37.6628 13.5391 37.7858 13.3538 37.7858 13.1692L37.7858 7.75385C37.7858 6.15385 38.4012 5.35385 39.5698 5.35385C39.7551 5.35385 39.8775 5.41538 40 5.41538C40.1852 5.47692 40.3692 5.35385 40.4308 5.16923L40.6154 4.06154C40.6154 3.93846 40.5538 3.75385 40.3686 3.69231C40.1828 3.63077 39.9378 3.63077 39.7532 3.63077C39.3225 3.63077 38.9538 3.69231 38.584 3.93846C38.216 4.18462 37.9083 4.49231 37.7231 4.86154L37.6615 4.86154L37.6615 4.12308C37.6615 3.87692 37.4769 3.75385 37.2923 3.75385L36.2462 3.75385C36.0615 3.75385 35.9385 3.93846 35.9385 4.12308ZM4.49231 4.12308L4.49231 13.2308C4.49231 13.4769 4.67692 13.6 4.86154 13.6615L5.96923 13.6615C6.216 13.6615 6.33846 13.4769 6.33846 13.2923L6.33846 4.12308C6.33846 3.87692 6.15385 3.75385 5.96923 3.75385L4.86154 3.75385C4.67692 3.75385 4.49231 3.93846 4.49231 4.12308ZM47.7538 5.6C48.1852 6.09231 48.3692 6.76985 48.4308 7.50769L43.1385 7.50769C43.1385 6.83077 43.3846 6.21538 43.8757 5.66154C44.3077 5.10769 44.9846 4.8 45.7846 4.8C46.6449 4.8 47.3231 5.04615 47.7538 5.6ZM58.4615 5.6C58.8935 6.09231 59.0769 6.76985 59.1397 7.50769L53.8462 7.50769C53.8462 6.83077 54.0923 6.21538 54.5846 5.66154C55.0166 5.10769 55.6923 4.8 56.4929 4.8C57.3538 4.8 58.0314 5.04615 58.4615 5.6Z" transform="translate(23.44615 1.784615)" id="Combined-Shape" fill="#161616" fill-rule="evenodd" stroke="none" />
      <path d="M6.78541 0.415385C6.47772 -0.138462 5.67771 -0.138462 5.37002 0.415385L0.0777149 10.0154C-0.168439 10.5077 0.200792 11.0615 0.754638 11.0615L4.32387 11.0615L4.32387 14.6923C4.32387 15.0615 4.63156 15.3692 5.00079 15.3692L7.0931 15.3692C7.46233 15.3692 7.77002 15.0615 7.77002 14.6923L7.77002 11.0615L6.78541 11.0615C6.35464 11.0615 6.04695 10.7538 5.98541 10.3846C5.98541 10.2615 5.98541 10.1385 6.04695 10.0142L9.00079 4.66031L6.78541 0.415385L6.78541 0.415385Z" transform="translate(0.5992081 0.01538462)" id="Shape" fill="#39E09B" stroke="none" />
      <path d="M2.27692 0.415385C2.58462 -0.138462 3.38462 -0.138462 3.69231 0.415385L8.98462 10.0154C9.23077 10.5077 8.86154 11.0615 8.30769 11.0615L4.8 11.0615L4.8 14.6923C4.8 15.0615 4.49231 15.3692 4.12246 15.3692L1.90769 15.3692C1.53846 15.3692 1.23077 15.0615 1.23077 14.6923L1.23077 11.0615L2.21538 11.0615C2.64615 11.0615 2.95385 10.7538 3.01539 10.3846C3.01539 10.2615 3.01539 10.1385 2.95385 10.0142L0 4.66154L2.27692 0.415385L2.27692 0.415385Z" transform="translate(9.784616 0.01538462)" id="Shape" fill="#28BF7B" stroke="none" />
    </g>
  </g>
</svg>
